<svg xmlns="http://www.w3.org/2000/svg" width="32" height="32" viewBox="0 0 32 32"><defs><style>.a{fill:#5dc1ff;}.b{fill:#fff;}</style></defs><g transform="translate(-263.276 -411.548)"><circle class="a" cx="16" cy="16" r="16" transform="translate(263.276 411.548)"/><g transform="translate(-483.616 -122.312)"><path class="b" d="M768.927,559.107a5.525,5.525,0,0,1-.634-.35,9.8,9.8,0,0,1-1.112-.9.936.936,0,0,0-1.2-.205c-.476.2-.425.545-.46.907-.046.475-.1.949-.147,1.423a.857.857,0,0,1-.931.875c-1.039,0-2.079.007-3.118,0a.852.852,0,0,1-.921-.884c-.042-.475-.122-.948-.133-1.424-.012-.516-.19-.89-.728-.965a1.076,1.076,0,0,0-.694.107c-.463.312-.876.7-1.316,1.044a.869.869,0,0,1-1.372-.041c-.714-.7-1.41-1.409-2.118-2.111a.867.867,0,0,1-.064-1.319,12.75,12.75,0,0,1,.907-1.106.849.849,0,0,0,.151-1.245.887.887,0,0,0-.487-.35c-.591-.108-1.192-.171-1.791-.225a.827.827,0,0,1-.866-.921q0-1.556,0-3.113a.81.81,0,0,1,.82-.9c.6-.063,1.2-.176,1.8-.19.43-.01.488-.291.615-.572s.23-.542-.055-.837c-.387-.4-.718-.859-1.064-1.3-.431-.548-.426-.878.047-1.363.7-.713,1.407-1.412,2.114-2.115a.882.882,0,0,1,1.327-.053c.368.3.768.574,1.106.908a.928.928,0,0,0,1.2.2c.461-.207.422-.557.466-.909.059-.473.1-.948.144-1.423a.861.861,0,0,1,.927-.882c1.039-.011,2.079-.009,3.118,0a.864.864,0,0,1,.923.888c.06.578.146,1.155.16,1.734.011.455.335.5.632.64a.6.6,0,0,0,.775-.053c.443-.406.933-.759,1.4-1.139a.825.825,0,0,1,1.222.052q1.112,1.091,2.205,2.2a.862.862,0,0,1,.039,1.278,12.707,12.707,0,0,1-.912,1.1.836.836,0,0,0-.147,1.245,1.007,1.007,0,0,0,.536.37c.591.109,1.193.156,1.793.221a.81.81,0,0,1,.816.9q0,1.556,0,3.113a.81.81,0,0,1-.812.905,15.4,15.4,0,0,1-1.731.2c-.519,0-.563.349-.741.67-.2.362-.031.572.18.819.35.41.684.835,1.023,1.255a.86.86,0,0,1-.042,1.277c-.731.737-1.461,1.476-2.21,2.2A3.134,3.134,0,0,1,768.927,559.107Zm-12-1.99c.544-.433,1.04-.809,1.513-1.212a.968.968,0,0,1,1.148-.129,15.587,15.587,0,0,0,1.491.615.927.927,0,0,1,.687.86c.021.227.031.455.057.682.163,1.4.163,1.388,1.578,1.328.321-.014.445-.127.47-.427a8.741,8.741,0,0,1,.18-1.6,1.5,1.5,0,0,1,.634-.8,16.137,16.137,0,0,1,1.535-.663.979.979,0,0,1,1.148.148c.486.41.99.8,1.42,1.142l1.344-1.271c-.411-.508-.808-1.012-1.219-1.505a.928.928,0,0,1-.119-1.093c.229-.484.435-.981.62-1.484a.938.938,0,0,1,.85-.7c.655-.061,1.307-.146,1.978-.223V548.96c-.654-.08-1.285-.177-1.92-.227a.972.972,0,0,1-.926-.77,7.418,7.418,0,0,0-.545-1.315,1.009,1.009,0,0,1,.144-1.3c.405-.464.775-.959,1.105-1.371l-1.245-1.369c-.518.42-1.007.805-1.483,1.205a1,1,0,0,1-1.206.13,9.358,9.358,0,0,0-1.371-.577.993.993,0,0,1-.781-.984c-.044-.629-.14-1.254-.209-1.852h-1.839c-.067.656-.135,1.271-.193,1.887a.982.982,0,0,1-.754.943,9.592,9.592,0,0,0-1.371.575,1.027,1.027,0,0,1-1.257-.14c-.477-.415-.986-.793-1.364-1.094l-1.415,1.19c.427.53.8,1.023,1.209,1.493a.972.972,0,0,1,.15,1.194,11.1,11.1,0,0,0-.6,1.428.948.948,0,0,1-.893.725c-.651.059-1.3.158-1.914.235v1.817c.657.074,1.273.156,1.891.209a.984.984,0,0,1,.931.769,7.776,7.776,0,0,0,.541,1.316,1.023,1.023,0,0,1-.134,1.3c-.406.463-.776.958-1.141,1.413Z" transform="translate(0)"/><path class="b" d="M804.795,596.708a4.787,4.787,0,0,1,.065-9.574,4.787,4.787,0,1,1-.065,9.574Zm-3.173-4.766a3.228,3.228,0,0,0,6.455-.026,3.275,3.275,0,0,0-3.248-3.223A3.24,3.24,0,0,0,801.621,591.943Z" transform="translate(-41.953 -42.065)"/></g></g></svg>