<svg xmlns="http://www.w3.org/2000/svg" width="22" height="17.302" viewBox="0 0 22 17.302"><defs><style>.a{fill:#175389;}</style></defs><path class="a" d="M-103.285-48.618h-17.794l5.271-5.77a1.134,1.134,0,0,0,0-1.5.91.91,0,0,0-1.369,0l-6.848,7.5a1.1,1.1,0,0,0-.275.8c0,.017-.009.031-.009.048s.009.032.009.05a1.115,1.115,0,0,0,.276.8l6.847,7.495h0a.909.909,0,0,0,1.368,0,1.135,1.135,0,0,0,0-1.5l-5.27-5.77h17.794a1.026,1.026,0,0,0,.976-1.069A1.026,1.026,0,0,0-103.285-48.618Z" transform="translate(124.309 56.198)"/></svg>