<svg xmlns="http://www.w3.org/2000/svg" width="32" height="32" viewBox="0 0 32 32"><defs><style>.a{fill:#5dc1ff;}.b{fill:#fff;}</style></defs><g transform="translate(-263.276 -411.548)"><circle class="a" cx="16" cy="16" r="16" transform="translate(263.276 411.548)"/><g transform="translate(270.276 417.649)"><path class="b" d="M280.559,421.339a.724.724,0,0,0-1.013.069,3.568,3.568,0,0,1-.684.434,7.947,7.947,0,0,1,5.395,6.966c.03.345-.074.445-.427.445q-2.486,0-4.973,0l0,0-2.465,0-2.465,0,0,0q-2.489,0-4.974,0c-.353,0-.457-.1-.425-.445a7.949,7.949,0,0,1,5.393-6.966,3.669,3.669,0,0,1-.684-.434.723.723,0,0,0-1.013-.069,9.074,9.074,0,0,0-4.823,8.77c0,.121-.006.238.173.182h.079c.109.006.22.019.331.019q2.686,0,5.374,0,3.035,0,6.07,0,2.688,0,5.375,0c.109,0,.22-.013.331-.019h.079c.178.056.168-.061.172-.182A9.068,9.068,0,0,0,280.559,421.339Z" transform="translate(-267.391 -412.31)"/><path class="b" d="M274.757,424.769a4.661,4.661,0,0,0,4.724-4.6V420.1a4.711,4.711,0,0,0-9.42-.146,4.729,4.729,0,0,0,4.7,4.811Zm.058-8.3a3.589,3.589,0,1,1-3.615,3.57,3.6,3.6,0,0,1,3.615-3.57Z" transform="translate(-265.77 -415.345)"/></g></g></svg>